<svg width="60" height="60" viewBox="0 0 60 60" fill="none" xmlns="http://www.w3.org/2000/svg">
<g clip-path="url(#clip0_20_27)">
<path d="M55.9394 15.4262H4.06059V53.6806H55.9394V15.4262Z" fill="#FF7E7E"/>
<path d="M55.9427 15.4293V53.6793H4.06032V49.6381C44.4544 49.3469 46.9427 21.7469 46.978 15.4293H55.9427Z" fill="#EF3D3D"/>
<path d="M8.86518 2.58185L3.58659 10.8731H56.4139L51.1354 2.58185C50.8114 2.073 50.25 1.76488 49.6467 1.76488H10.3538C9.75053 1.76488 9.18909 2.07309 8.86518 2.58185Z" fill="white"/>
<path d="M56.4103 10.8763H3.58385L5.26032 8.24691C39.3809 8.70574 44.728 4.19691 45.1603 1.76162H49.6427C50.2515 1.76162 50.8074 2.07044 51.1338 2.58221L56.4103 10.8763Z" fill="#DEE1E6"/>
<path d="M1.76488 11.7833V14.5158C1.76488 15.0188 2.17271 15.4266 2.67574 15.4266H57.3247C57.8277 15.4266 58.2356 15.0188 58.2356 14.5158V11.7833C58.2356 11.2803 57.8277 10.8724 57.3247 10.8724H2.67574C2.17271 10.8724 1.76488 11.2803 1.76488 11.7833Z" fill="#C7CBD1"/>
<path d="M1.76488 54.5916V57.3241C1.76488 57.8271 2.17271 58.2349 2.67574 58.2349H57.3247C57.8277 58.2349 58.2356 57.8271 58.2356 57.3241V54.5916C58.2356 54.0886 57.8277 53.6808 57.3247 53.6808H2.67574C2.17271 53.6808 1.76488 54.0886 1.76488 54.5916Z" fill="#DEE1E6"/>
<path d="M16.8715 19.4974H9.585V26.7838H16.8715V19.4974Z" fill="#4DABF4"/>
<path d="M16.8715 30.9106H9.585V38.1971H16.8715V30.9106Z" fill="#4DABF4"/>
<path d="M16.8715 42.3229H9.585V49.6094H16.8715V42.3229Z" fill="#4DABF4"/>
<path d="M9.585 26.7838H16.8715V19.4974L9.585 26.7838Z" fill="#1D7BD5"/>
<path d="M33.6432 19.4974H26.3568V26.7838H33.6432V19.4974Z" fill="#4DABF4"/>
<path d="M26.3568 26.7838H33.6432V19.4974L26.3568 26.7838Z" fill="#1D7BD5"/>
<path d="M9.585 38.1971H16.8715V30.9106L9.585 38.1971Z" fill="#1D7BD5"/>
<path d="M9.585 49.6094H16.8715V42.3229L9.585 49.6094Z" fill="#1D7BD5"/>
<path d="M51.2929 19.4974H44.0065V26.7838H51.2929V19.4974Z" fill="#4DABF4"/>
<path d="M51.2929 30.9106H44.0065V38.1971H51.2929V30.9106Z" fill="#4DABF4"/>
<path d="M51.2929 42.3229H44.0065V49.6094H51.2929V42.3229Z" fill="#4DABF4"/>
<path d="M44.0065 26.7838H51.2929V19.4974L44.0065 26.7838Z" fill="#1D7BD5"/>
<path d="M44.0065 38.1971H51.2929V30.9106L44.0065 38.1971Z" fill="#1D7BD5"/>
<path d="M44.0065 49.6094H51.2929V42.3229L44.0065 49.6094Z" fill="#1D7BD5"/>
<path d="M22.6669 40.7137V53.6808H37.3335V40.7137C37.3335 30.9581 22.6669 30.9496 22.6669 40.7137Z" fill="#4DABF4"/>
<path d="M37.3339 40.7175V53.6793H22.6691V47.0175C28.9603 45.0587 33.628 42.1381 37.0868 38.8381C37.2456 39.4381 37.3339 40.0646 37.3339 40.7175Z" fill="#1D7BD5"/>
<path d="M57.3245 16.3089C58.3133 16.3089 59.1176 15.5045 59.1176 14.5158V11.7834C59.1176 10.7946 58.3133 9.99026 57.3245 9.99026H56.8979L51.8796 2.10812C51.3911 1.34082 50.5561 0.882794 49.6466 0.882794H10.3539C9.44435 0.882794 8.60938 1.34074 8.12082 2.10812L3.10253 9.99026H2.67591C1.68715 9.99026 0.882353 10.7946 0.882353 11.7834V14.5158C0.882353 15.5045 1.68715 16.3089 2.67591 16.3089H3.17868V52.7986H2.67591C1.68715 52.7986 0.882353 53.6029 0.882353 54.5917V57.3241C0.882353 58.3129 1.68715 59.1172 2.67591 59.1172H57.3245C58.3133 59.1172 59.1176 58.3129 59.1176 57.3241V54.5917C59.1176 53.6029 58.3133 52.7986 57.3245 52.7986H56.8218V16.3089H57.3245V16.3089ZM9.60979 3.05594C9.77224 2.80006 10.0505 2.6475 10.3539 2.6475H49.6466C49.9499 2.6475 50.2282 2.80006 50.3906 3.05594L54.8056 9.99026H5.19485L9.60979 3.05594ZM2.64706 14.5158L2.67591 11.755L57.3529 11.7834V14.5158C57.3529 14.5317 57.3404 14.5442 57.3245 14.5442L2.64706 14.5158ZM36.4513 40.7136V52.7986H30.8824V34.3303C34.0227 34.7628 36.4513 37.4567 36.4513 40.7136ZM29.1176 52.7986H23.5491V40.7136C23.5491 37.4567 25.9777 34.7629 29.1176 34.3303V52.7986ZM57.3529 54.5917V57.3241C57.3529 57.3401 57.3404 57.3525 57.3245 57.3525L2.64706 57.3241L2.67591 54.5633L57.3529 54.5917ZM55.057 52.7986H38.216V40.7136C38.216 36.1834 34.5303 32.498 30 32.498C25.4697 32.498 21.7844 36.1834 21.7844 40.7136V52.7986H4.94338V16.3089H55.057V52.7986Z" fill="#231F20"/>
<path d="M9.58527 27.6666H16.8716C17.3588 27.6666 17.7539 27.2715 17.7539 26.7843V19.4975C17.7539 19.0103 17.3588 18.6152 16.8716 18.6152H9.58527C9.09803 18.6152 8.70291 19.0103 8.70291 19.4975V26.7843C8.70291 27.2715 9.09794 27.6666 9.58527 27.6666ZM10.4676 20.3799H15.9892V25.9019H10.4676V20.3799V20.3799ZM9.58527 39.0794H16.8716C17.3588 39.0794 17.7539 38.6843 17.7539 38.1971V30.9103C17.7539 30.4231 17.3588 30.028 16.8716 30.028H9.58527C9.09803 30.028 8.70291 30.4231 8.70291 30.9103V38.1971C8.70291 38.6844 9.09794 39.0794 9.58527 39.0794ZM10.4676 31.7927H15.9892V37.3147H10.4676V31.7927V31.7927ZM9.58527 50.4919H16.8716C17.3588 50.4919 17.7539 50.0967 17.7539 49.6095V42.3232C17.7539 41.836 17.3588 41.4409 16.8716 41.4409H9.58527C9.09803 41.4409 8.70291 41.836 8.70291 42.3232V49.6095C8.70291 50.0968 9.09794 50.4919 9.58527 50.4919ZM10.4676 43.2056H15.9892V48.7271H10.4676V43.2056V43.2056ZM44.0069 27.6666H51.2932C51.7804 27.6666 52.1756 27.2715 52.1756 26.7843V19.4975C52.1756 19.0103 51.7804 18.6152 51.2932 18.6152H44.0069C43.5197 18.6152 43.1246 19.0103 43.1246 19.4975V26.7843C43.1246 27.2715 43.5197 27.6666 44.0069 27.6666ZM44.8893 20.3799H50.4109V25.9019H44.8893V20.3799ZM26.3569 27.6666H33.6436C34.1308 27.6666 34.5259 27.2715 34.5259 26.7843V19.4975C34.5259 19.0103 34.1308 18.6152 33.6436 18.6152H26.3569C25.8696 18.6152 25.4745 19.0103 25.4745 19.4975V26.7843C25.4745 27.2715 25.8695 27.6666 26.3569 27.6666ZM27.2392 20.3799H32.7612V25.9019H27.2392V20.3799ZM44.0069 39.0794H51.2932C51.7804 39.0794 52.1756 38.6843 52.1756 38.1971V30.9103C52.1756 30.4231 51.7804 30.028 51.2932 30.028H44.0069C43.5197 30.028 43.1246 30.4231 43.1246 30.9103V38.1971C43.1246 38.6844 43.5197 39.0794 44.0069 39.0794ZM44.8893 31.7927H50.4109V37.3147H44.8893V31.7927ZM44.0069 50.4919H51.2932C51.7804 50.4919 52.1756 50.0967 52.1756 49.6095V42.3232C52.1756 41.836 51.7804 41.4409 51.2932 41.4409H44.0069C43.5197 41.4409 43.1246 41.836 43.1246 42.3232V49.6095C43.1246 50.0968 43.5197 50.4919 44.0069 50.4919ZM44.8893 43.2056H50.4109V48.7271H44.8893V43.2056Z" fill="#231F20"/>
</g>
<defs>
<clipPath id="clip0_20_27">
<rect width="60" height="60" fill="white"/>
</clipPath>
</defs>
</svg>
