<svg width="25" height="25" viewBox="0 0 25 25" fill="none" xmlns="http://www.w3.org/2000/svg">
<path d="M12.5 20.5937C10.9082 20.5925 9.35312 20.1152 8.03466 19.2233C6.71621 18.3313 5.69462 17.0655 5.10119 15.5884C4.50776 14.1113 4.36961 12.4906 4.70449 10.9344C5.03938 9.37817 5.83199 7.95768 6.98047 6.85547C7.01678 6.81885 7.05999 6.78979 7.10759 6.76996C7.15519 6.75013 7.20625 6.73992 7.25781 6.73992C7.30938 6.73992 7.36044 6.75013 7.40804 6.76996C7.45564 6.78979 7.49884 6.81885 7.53516 6.85547C7.60791 6.92866 7.64875 7.02766 7.64875 7.13086C7.64875 7.23406 7.60791 7.33306 7.53516 7.40625C6.49775 8.39969 5.78142 9.68089 5.47838 11.0849C5.17533 12.489 5.29943 13.9516 5.83471 15.2844C6.36999 16.6173 7.29195 17.7595 8.48191 18.564C9.67186 19.3684 11.0754 19.7983 12.5117 19.7983C13.9481 19.7983 15.3516 19.3684 16.5415 18.564C17.7315 17.7595 18.6534 16.6173 19.1887 15.2844C19.724 13.9516 19.8481 12.489 19.5451 11.0849C19.242 9.68089 18.5257 8.39969 17.4883 7.40625C17.4155 7.33306 17.3747 7.23406 17.3747 7.13086C17.3747 7.02766 17.4155 6.92866 17.4883 6.85547C17.5246 6.81885 17.5678 6.78979 17.6154 6.76996C17.663 6.75013 17.7141 6.73992 17.7656 6.73992C17.8172 6.73992 17.8682 6.75013 17.9159 6.76996C17.9635 6.78979 18.0067 6.81885 18.043 6.85547C19.1929 7.95907 19.986 9.3817 20.3202 10.9401C20.6544 12.4985 20.5142 14.1212 19.9179 15.5993C19.3215 17.0773 18.2963 18.343 16.9742 19.2331C15.6521 20.1233 14.0938 20.5972 12.5 20.5937V20.5937Z" fill="#222222"/>
<path d="M12.5 13.2812C12.3964 13.2812 12.297 13.2401 12.2238 13.1668C12.1505 13.0936 12.1094 12.9942 12.1094 12.8906V4.79687C12.1094 4.69327 12.1505 4.59392 12.2238 4.52066C12.297 4.44741 12.3964 4.40625 12.5 4.40625C12.6036 4.40625 12.703 4.44741 12.7762 4.52066C12.8495 4.59392 12.8906 4.69327 12.8906 4.79687V12.8906C12.8906 12.9942 12.8495 13.0936 12.7762 13.1668C12.703 13.2401 12.6036 13.2812 12.5 13.2812Z" fill="#222222"/>
</svg>
