<svg width="25" height="19" viewBox="0 0 25 19" fill="none" xmlns="http://www.w3.org/2000/svg">
<path d="M23.3237 10.516C23.3237 10.2104 23.0924 10.0576 22.6296 10.0576H8.38135C8.03213 10.0576 7.6589 10.1515 7.26165 10.3392C6.86442 10.5269 6.55231 10.7561 6.32531 11.0267L2.47511 15.7805C2.31797 15.9901 2.2394 16.1647 2.2394 16.3044C2.2394 16.6099 2.47075 16.7627 2.93347 16.7627H17.1818C17.531 16.7627 17.9064 16.6667 18.308 16.4746C18.7096 16.2825 19.0196 16.0512 19.2378 15.7805L23.088 11.0267C23.2452 10.8347 23.3237 10.6644 23.3237 10.516L23.3237 10.516ZM8.38135 8.38136H18.439V6.28602C18.439 5.93679 18.3167 5.63995 18.0723 5.39549C17.8278 5.15105 17.531 5.02882 17.1818 5.02882H9.63856C9.28933 5.02882 8.99249 4.90659 8.74803 4.66214C8.50358 4.41768 8.38135 4.12084 8.38135 3.77161V2.93348C8.38135 2.58425 8.25912 2.28741 8.01466 2.04295C7.77021 1.7985 7.47337 1.67627 7.12416 1.67628H2.93347C2.58425 1.67628 2.28741 1.79851 2.04295 2.04297C1.7985 2.28743 1.67627 2.58427 1.67627 2.9335V14.1043L5.02881 9.97906C5.41295 9.51635 5.91932 9.13438 6.54792 8.83318C7.17653 8.53198 7.78767 8.38138 8.38135 8.38138V8.38136ZM25 10.516C25 11.0573 24.7992 11.5811 24.3976 12.0875L20.5343 16.8413C20.1589 17.304 19.6525 17.686 19.0152 17.9872C18.3779 18.2884 17.7667 18.439 17.1818 18.439H2.93347C2.13026 18.439 1.44055 18.1509 0.864328 17.5747C0.288109 16.9984 0 16.3087 0 15.5055V2.93348C0 2.13026 0.288109 1.44055 0.864328 0.864327C1.44055 0.288109 2.13026 0 2.93347 0H7.12416C7.92737 0 8.61709 0.288109 9.1933 0.864327C9.76952 1.44055 10.0576 2.13026 10.0576 2.93348V3.35255H17.1818C17.985 3.35255 18.6747 3.64066 19.2509 4.21687C19.8272 4.79309 20.1153 5.4828 20.1153 6.28602V8.38136H22.6297C23.1011 8.38136 23.5333 8.48831 23.9262 8.7022C24.319 8.91611 24.6115 9.22387 24.8036 9.62547C24.9345 9.90484 25 10.2017 25 10.516Z" fill="black"/>
</svg>
