<svg width="82" height="57" viewBox="0 0 82 57" fill="none" xmlns="http://www.w3.org/2000/svg">
<path d="M79.0714 0H2.92857C1.31117 0 0 1.15999 0 2.59091V44.0455C0 45.4764 1.31117 46.6364 2.92857 46.6364H79.0714C80.6888 46.6364 82 45.4764 82 44.0455V2.59091C82 1.15999 80.6888 0 79.0714 0Z" fill="#42A5F5"/>
<path d="M55.6429 57H26.3571C25.5804 57 24.8355 56.727 24.2863 56.2411C23.7371 55.7553 23.4286 55.0962 23.4286 54.4091C23.4286 53.7219 23.7371 53.0629 24.2863 52.577C24.8355 52.0911 25.5804 51.8182 26.3571 51.8182H55.6429C56.4196 51.8182 57.1645 52.0911 57.7137 52.577C58.2629 53.0629 58.5714 53.7219 58.5714 54.4091C58.5714 55.0962 58.2629 55.7553 57.7137 56.2411C57.1645 56.727 56.4196 57 55.6429 57Z" fill="#37474F"/>
<path d="M82 2.59091V44.0455C82 44.7326 81.6915 45.3916 81.1422 45.8775C80.593 46.3634 79.8481 46.6364 79.0714 46.6364H41V0H79.0714C79.8481 0 80.593 0.27297 81.1422 0.75886C81.6915 1.24475 82 1.90376 82 2.59091Z" fill="#1E88E5"/>
<path d="M79.0714 0H2.92857C2.15187 0 1.40697 0.27297 0.857759 0.75886C0.308545 1.24475 0 1.90376 0 2.59091V44.0455C0 44.7326 0.308545 45.3916 0.857759 45.8775C1.40697 46.3634 2.15187 46.6364 2.92857 46.6364H79.0714C79.8481 46.6364 80.593 46.3634 81.1422 45.8775C81.6915 45.3916 82 44.7326 82 44.0455V2.59091C82 1.90376 81.6915 1.24475 81.1422 0.75886C80.593 0.27297 79.8481 0 79.0714 0ZM76.1429 41.4545H5.85714V5.18182H76.1429V41.4545ZM55.6429 57C56.4196 57 57.1645 56.727 57.7137 56.2411C58.2629 55.7553 58.5714 55.0962 58.5714 54.4091C58.5714 53.7219 58.2629 53.0629 57.7137 52.577C57.1645 52.0911 56.4196 51.8182 55.6429 51.8182H26.3571C25.5804 51.8182 24.8355 52.0911 24.2863 52.577C23.7371 53.0629 23.4286 53.7219 23.4286 54.4091C23.4286 55.0962 23.7371 55.7553 24.2863 56.2411C24.8355 56.727 25.5804 57 26.3571 57H55.6429Z" fill="#311B92"/>
</svg>
