<svg width="50" height="50" viewBox="0 0 50 50" fill="none" xmlns="http://www.w3.org/2000/svg">
<g clip-path="url(#clip0_21_55)">
<path d="M36.4844 43.9844H2.10938C0.9375 43.9844 0 43.0469 0 41.875V28.9063C0 27.7344 0.9375 26.7969 2.10938 26.7969H36.4844C37.6563 26.7969 38.5938 27.7344 38.5938 28.9063V41.875C38.5938 43.0469 37.6563 43.9844 36.4844 43.9844ZM2.10938 28.2031C1.71875 28.2031 1.40625 28.5156 1.40625 28.9063V41.875C1.40625 42.2656 1.71875 42.5781 2.10938 42.5781H36.4844C36.875 42.5781 37.1875 42.2656 37.1875 41.875V28.9063C37.1875 28.5156 36.875 28.2031 36.4844 28.2031H2.10938Z" fill="#01234C"/>
<path d="M6.09375 32.1094H4.29688C3.90625 32.1094 3.59375 31.7969 3.59375 31.4063C3.59375 31.0156 3.90625 30.7031 4.29688 30.7031H6.01563C6.40625 30.7031 6.71875 31.0156 6.71875 31.4063C6.71875 31.7969 6.48438 32.1094 6.09375 32.1094ZM11.0156 32.1094H9.29688C8.90625 32.1094 8.59375 31.7969 8.59375 31.4063C8.59375 31.0156 8.90625 30.7031 9.29688 30.7031H11.0156C11.4063 30.7031 11.7188 31.0156 11.7188 31.4063C11.7188 31.7969 11.4063 32.1094 11.0156 32.1094ZM15.7031 32.1094H13.9844C13.5938 32.1094 13.2813 31.7969 13.2813 31.4063C13.2813 31.0156 13.5938 30.7031 13.9844 30.7031H15.7031C16.0938 30.7031 16.4063 31.0156 16.4063 31.4063C16.4063 31.7969 16.0938 32.1094 15.7031 32.1094ZM20.3906 32.1094H18.6719C18.2813 32.1094 17.9688 31.7969 17.9688 31.4063C17.9688 31.0156 18.2813 30.7031 18.6719 30.7031H20.3906C20.7813 30.7031 21.0938 31.0156 21.0938 31.4063C21.0938 31.7969 20.7813 32.1094 20.3906 32.1094ZM24.375 32.1094H22.6563C22.2656 32.1094 21.9531 31.7969 21.9531 31.4063C21.9531 31.0156 22.2656 30.7031 22.6563 30.7031H24.375C24.7656 30.7031 25.0781 31.0156 25.0781 31.4063C25.0781 31.7969 24.7656 32.1094 24.375 32.1094ZM29.5313 32.1094H27.8125C27.4219 32.1094 27.1094 31.7969 27.1094 31.4063C27.1094 31.0156 27.4219 30.7031 27.8125 30.7031H29.5313C29.9219 30.7031 30.2344 31.0156 30.2344 31.4063C30.2344 31.7969 29.9219 32.1094 29.5313 32.1094ZM33.8281 32.1094H32.1094C31.7188 32.1094 31.4063 31.7969 31.4063 31.4063C31.4063 31.0156 31.7188 30.7031 32.1094 30.7031H33.8281C34.2188 30.7031 34.5313 31.0156 34.5313 31.4063C34.5313 31.7969 34.2188 32.1094 33.8281 32.1094ZM6.09375 36.0938H4.29688C3.90625 36.0938 3.59375 35.7813 3.59375 35.3906C3.59375 35 3.90625 34.6875 4.29688 34.6875H6.01563C6.40625 34.6875 6.71875 35 6.71875 35.3906C6.79688 35.7813 6.48438 36.0938 6.09375 36.0938ZM6.09375 40H4.29688C3.90625 40 3.59375 39.6875 3.59375 39.2969C3.59375 38.9063 3.90625 38.5938 4.29688 38.5938H6.01563C6.40625 38.5938 6.71875 38.9063 6.71875 39.2969C6.79688 39.6875 6.48438 40 6.09375 40ZM11.0156 36.0938H9.29688C8.90625 36.0938 8.59375 35.7813 8.59375 35.3906C8.59375 35 8.90625 34.6875 9.29688 34.6875H11.0156C11.4063 34.6875 11.7188 35 11.7188 35.3906C11.7188 35.7813 11.4063 36.0938 11.0156 36.0938ZM11.0156 40H9.29688C8.90625 40 8.59375 39.6875 8.59375 39.2969C8.59375 38.9063 8.90625 38.5938 9.29688 38.5938H11.0156C11.4063 38.5938 11.7188 38.9063 11.7188 39.2969C11.7188 39.6875 11.4063 40 11.0156 40ZM15.7031 36.0938H13.9844C13.5938 36.0938 13.2813 35.7813 13.2813 35.3906C13.2813 35 13.5938 34.6875 13.9844 34.6875H15.7031C16.0938 34.6875 16.4063 35 16.4063 35.3906C16.4063 35.7813 16.0938 36.0938 15.7031 36.0938ZM20.3906 36.0938H18.6719C18.2813 36.0938 17.9688 35.7813 17.9688 35.3906C17.9688 35 18.2813 34.6875 18.6719 34.6875H20.3906C20.7813 34.6875 21.0938 35 21.0938 35.3906C21.0938 35.7813 20.7813 36.0938 20.3906 36.0938ZM24.375 36.0938H22.6563C22.2656 36.0938 21.9531 35.7813 21.9531 35.3906C21.9531 35 22.2656 34.6875 22.6563 34.6875H24.375C24.7656 34.6875 25.0781 35 25.0781 35.3906C25.0781 35.7813 24.7656 36.0938 24.375 36.0938ZM29.5313 36.0938H27.8125C27.4219 36.0938 27.1094 35.7813 27.1094 35.3906C27.1094 35 27.4219 34.6875 27.8125 34.6875H29.5313C29.9219 34.6875 30.2344 35 30.2344 35.3906C30.2344 35.7813 29.9219 36.0938 29.5313 36.0938ZM33.8281 36.0938H32.1094C31.7188 36.0938 31.4063 35.7813 31.4063 35.3906C31.4063 35 31.7188 34.6875 32.1094 34.6875H33.8281C34.2188 34.6875 34.5313 35 34.5313 35.3906C34.5313 35.7813 34.2188 36.0938 33.8281 36.0938ZM33.8281 40H32.1094C31.7188 40 31.4063 39.6875 31.4063 39.2969C31.4063 38.9063 31.7188 38.5938 32.1094 38.5938H33.8281C34.2188 38.5938 34.5313 38.9063 34.5313 39.2969C34.5313 39.6875 34.2188 40 33.8281 40ZM29.375 40H13.8281C13.4375 40 13.125 39.6875 13.125 39.2969C13.125 38.9063 13.4375 38.5938 13.8281 38.5938H29.375C29.7656 38.5938 30.0781 38.9063 30.0781 39.2969C30.0781 39.6875 29.7656 40 29.375 40Z" fill="#01234C"/>
<path d="M27.6563 16.7969C23.0469 16.7969 19.2969 13.0469 19.2969 8.4375C19.2969 3.82813 23.125 0.15625 27.6563 0.15625C32.2656 0.15625 36.0156 3.90625 36.0156 8.51562C36.0156 13.125 32.2656 16.7969 27.6563 16.7969ZM27.6563 1.5625C23.8281 1.5625 20.7031 4.6875 20.7031 8.51562C20.7031 12.3437 23.8281 15.4687 27.6563 15.4687C31.4844 15.4687 34.6094 12.3437 34.6094 8.51562C34.6094 4.6875 31.4844 1.5625 27.6563 1.5625Z" fill="#01234C"/>
<path d="M32.3438 15.1562C31.9531 15.1562 31.6406 14.8438 31.6406 14.4531C31.6406 12.2656 29.8438 10.4687 27.6563 10.4687C25.4688 10.4687 23.6719 12.2656 23.6719 14.4531C23.6719 14.8438 23.3594 15.1562 22.9687 15.1562C22.5781 15.1562 22.2656 14.8438 22.2656 14.4531C22.2656 11.4844 24.6875 9.14062 27.5781 9.14062C30.5469 9.14062 32.8906 11.5625 32.8906 14.4531C33.0469 14.9219 32.7344 15.1562 32.3438 15.1562Z" fill="#01234C"/>
<path d="M27.5 10.5469C25.7031 10.5469 24.2188 9.0625 24.2188 7.26563C24.2188 5.46875 25.7031 3.98438 27.5 3.98438C29.2969 3.98438 30.7813 5.46875 30.7813 7.26563C30.7813 9.0625 29.375 10.5469 27.5 10.5469ZM27.5 5.3125C26.4844 5.3125 25.625 6.17187 25.625 7.1875C25.625 8.20312 26.4844 9.0625 27.5 9.0625C28.5156 9.0625 29.375 8.20312 29.375 7.1875C29.375 6.17187 28.5938 5.3125 27.5 5.3125Z" fill="#01234C"/>
<path d="M9.29687 18.3594C8.20312 18.3594 7.10937 18.125 6.01562 17.5781C5.78125 17.5 5.625 17.1875 5.625 16.9531C5.625 14.9219 7.26562 13.2031 9.375 13.2031C11.4062 13.2031 13.125 14.8438 13.125 16.9531C13.125 17.1875 12.9687 17.5 12.7344 17.5781C11.5625 18.0469 10.4687 18.3594 9.29687 18.3594ZM7.03125 16.4844C8.59375 17.0313 10.0781 17.0313 11.5625 16.4844C11.3281 15.3906 10.3906 14.6094 9.29687 14.6094C8.20312 14.6094 7.26563 15.4688 7.03125 16.4844Z" fill="#01234C"/>
<path d="M9.14062 14.6094C7.73437 14.6094 6.64062 13.5156 6.64062 12.1094C6.64062 10.7031 7.73437 9.60938 9.14062 9.60938C10.5469 9.60938 11.6406 10.7031 11.6406 12.1094C11.6406 13.5156 10.5469 14.6094 9.14062 14.6094ZM9.14062 11.0156C8.51562 11.0156 8.04688 11.4844 8.04688 12.1094C8.04688 12.7344 8.51562 13.2031 9.14062 13.2031C9.76562 13.2031 10.2344 12.7344 10.2344 12.1094C10.2344 11.5625 9.76562 11.0156 9.14062 11.0156Z" fill="#01234C"/>
<path d="M38.4375 26.6406C37.3438 26.6406 36.25 26.4062 35.1562 25.8594C34.9219 25.7812 34.7656 25.4687 34.7656 25.2344C34.7656 23.2031 36.4062 21.4844 38.5156 21.4844C40.5469 21.4844 42.2656 23.125 42.2656 25.2344C42.2656 25.4687 42.1094 25.7812 41.875 25.8594C40.625 26.4062 39.5313 26.6406 38.4375 26.6406ZM36.1719 24.8437C37.7344 25.3906 39.2187 25.3906 40.7031 24.8437C40.4687 23.75 39.5313 22.9687 38.4375 22.9687C37.2656 22.9687 36.3281 23.75 36.1719 24.8437Z" fill="#01234C"/>
<path d="M38.2813 22.9687C36.875 22.9687 35.7812 21.875 35.7812 20.4688C35.7812 19.0625 36.875 17.9688 38.2813 17.9688C39.6875 17.9688 40.7813 19.0625 40.7813 20.4688C40.7813 21.875 39.6094 22.9687 38.2813 22.9687ZM38.2813 19.375C37.6563 19.375 37.1875 19.8438 37.1875 20.4688C37.1875 21.0938 37.6563 21.5625 38.2813 21.5625C38.9063 21.5625 39.375 21.0938 39.375 20.4688C39.375 19.9219 38.8281 19.375 38.2813 19.375Z" fill="#01234C"/>
<path d="M33.5156 22.2656H30.7031C30.3125 22.2656 30 21.9531 30 21.5625C30 21.1719 30.3125 20.8594 30.7031 20.8594H33.5156C33.9063 20.8594 34.2188 21.1719 34.2188 21.5625C34.2188 21.9531 33.9063 22.2656 33.5156 22.2656ZM26.6406 22.2656H23.8281C23.4375 22.2656 23.125 21.9531 23.125 21.5625C23.125 21.1719 23.4375 20.8594 23.8281 20.8594H26.6406C27.0312 20.8594 27.3437 21.1719 27.3437 21.5625C27.3437 21.9531 27.0312 22.2656 26.6406 22.2656ZM19.6875 22.2656H16.875C16.4844 22.2656 16.1719 21.9531 16.1719 21.5625C16.1719 21.1719 16.4844 20.8594 16.875 20.8594H19.6875C20.0781 20.8594 20.3906 21.1719 20.3906 21.5625C20.3906 21.9531 20.0781 22.2656 19.6875 22.2656ZM12.7344 22.2656H9.92188C9.53125 22.2656 9.21875 21.9531 9.21875 21.5625C9.21875 21.1719 9.53125 20.8594 9.92188 20.8594H12.7344C13.125 20.8594 13.4375 21.1719 13.4375 21.5625C13.4375 21.9531 13.125 22.2656 12.7344 22.2656ZM6.09375 20.9375C6.01563 20.9375 5.85938 20.9375 5.78125 20.8594L5.15625 20.5469C4.76562 20.3125 4.375 20 4.14063 19.6094L3.75 19.0625C3.51563 18.75 3.59375 18.2813 3.90625 18.125C4.21875 17.8906 4.6875 17.9688 4.84375 18.2813L5.23437 18.8281C5.39062 19.0625 5.54688 19.2188 5.78125 19.2969L6.40625 19.6094C6.71875 19.7656 6.875 20.2344 6.71875 20.5469C6.5625 20.7812 6.32813 20.9375 6.09375 20.9375ZM4.29688 15.5469C3.90625 15.5469 3.59375 15.2344 3.59375 14.8438V12.0313C3.59375 11.6406 3.90625 11.3281 4.29688 11.3281C4.6875 11.3281 5 11.6406 5 12.0313V14.8438C5 15.2344 4.6875 15.5469 4.29688 15.5469ZM4.76562 9.375C4.53125 9.375 4.29688 9.29688 4.14063 9.0625C3.90625 8.75 4.0625 8.28125 4.375 8.125L5 7.73437C5.39063 7.42187 5.78125 7.34375 6.25 7.26563L6.95312 7.1875C7.34375 7.1875 7.65625 7.42188 7.73437 7.8125C7.73437 8.20313 7.5 8.51563 7.10938 8.59375L6.40625 8.67188C6.17187 8.67188 5.9375 8.75 5.70313 8.90625L5.07813 9.29688C5 9.29688 4.92188 9.375 4.76562 9.375ZM20.0781 8.67188H18.125C17.7344 8.67188 17.4219 8.35938 17.4219 7.96875C17.4219 7.57813 17.7344 7.26563 18.125 7.26563H20.0781C20.4688 7.26563 20.7812 7.57813 20.7812 7.96875C20.7813 8.35938 20.4688 8.67188 20.0781 8.67188ZM13.9062 8.67188H11.0938C10.7031 8.67188 10.3906 8.35938 10.3906 7.96875C10.3906 7.57813 10.7031 7.26563 11.0938 7.26563H13.9062C14.2969 7.26563 14.6094 7.57813 14.6094 7.96875C14.6094 8.35938 14.2969 8.67188 13.9062 8.67188Z" fill="#01234C"/>
<path d="M43.8281 26.1719C43.75 26.1719 43.75 26.1719 43.6719 26.1719C43.5156 26.0937 43.3594 26.0938 43.125 26.0938C42.7344 26.0938 42.4219 25.7812 42.4219 25.3906C42.4219 25 42.7344 24.6875 43.125 24.6875C43.4375 24.6875 43.6719 24.6875 43.9844 24.7656C44.375 24.8438 44.6094 25.2344 44.5313 25.625C44.4531 25.9375 44.1406 26.1719 43.8281 26.1719ZM43.125 32.1094H42.1875C41.7969 32.1094 41.4844 31.7969 41.4844 31.4063C41.4844 31.0156 41.7969 30.7031 42.1875 30.7031H43.125C43.2031 30.7031 43.2813 30.7031 43.3594 30.7031C43.75 30.625 44.0625 30.9375 44.1406 31.3281C44.1406 31.7187 43.9063 32.0312 43.5156 32.1094C43.3594 32.1094 43.2813 32.1094 43.125 32.1094ZM46.0156 29.9219C45.9375 29.9219 45.9375 29.9219 45.8594 29.9219C45.4688 29.8437 45.2344 29.4531 45.3906 29.0625C45.4688 28.9063 45.4688 28.6719 45.4688 28.5156V28.3594C45.4688 28.2812 45.4688 28.2031 45.4688 28.125C45.3906 27.7344 45.7031 27.4219 46.0938 27.3437C46.4844 27.2656 46.7969 27.5781 46.875 27.9687C46.875 28.125 46.875 28.2031 46.875 28.3594V28.5156C46.875 28.8281 46.875 29.1406 46.7969 29.375C46.5625 29.6875 46.3281 29.9219 46.0156 29.9219ZM38.5938 32.1094H37.8906C37.5 32.1094 37.1875 31.7969 37.1875 31.4063C37.1875 31.0156 37.5 30.7031 37.8906 30.7031H38.5938C38.9844 30.7031 39.2969 31.0156 39.2969 31.4063C39.2969 31.7969 38.9844 32.1094 38.5938 32.1094Z" fill="#01234C"/>
<path d="M44.0625 43.4375C44.0625 43.6719 44.2187 43.8281 44.375 43.9063C44.6094 43.9844 44.8437 43.9063 44.9219 43.75L46.7969 41.875L49.4531 41.9531C49.6875 41.9531 49.8437 41.7969 49.9219 41.6406C50 41.4062 49.9219 41.1719 49.7656 41.0937L47.8906 39.2188L47.9687 36.5625C47.9687 36.3281 47.8125 36.1719 47.6562 36.0938C47.4219 36.0156 47.1875 36.0938 47.1094 36.25L45.2344 38.125L42.5781 38.0469C42.3437 38.0469 42.1875 38.2031 42.1094 38.3594C42.0312 38.5937 42.1094 38.8281 42.2656 38.9063L44.1406 40.7813L44.0625 43.4375ZM45.4687 39.1406C45.625 39.1406 45.7812 39.0625 45.8594 38.9844L46.9531 37.8906V39.4531C46.9531 39.6094 47.0312 39.7656 47.1094 39.8438L48.2031 40.9375H46.6406C46.4844 40.9375 46.3281 41.0156 46.25 41.0937L45.1562 42.1875V40.625C45.1562 40.4688 45.0781 40.3125 45 40.2344L43.9062 39.0625L45.4687 39.1406ZM14.1406 49.5313C14.1406 49.6875 14.2187 49.7656 14.2969 49.8437C14.375 49.9219 14.5312 49.8438 14.6094 49.7656L15.7031 48.6719H17.2656C17.4219 48.6719 17.5 48.5937 17.5781 48.5156C17.6562 48.4375 17.5781 48.2813 17.5 48.2031L16.4062 47.1094V45.5469C16.4062 45.3906 16.3281 45.3125 16.25 45.2344C16.1719 45.1563 16.0156 45.2344 15.9375 45.3125L14.8437 46.4063H13.2812C13.125 46.4063 13.0469 46.4844 12.9687 46.5625C12.8906 46.6406 12.9687 46.7969 13.0469 46.875L14.1406 47.9688V49.5313ZM14.9219 47.0313C15 47.0313 15.0781 47.0312 15.1562 46.9531L15.7812 46.3281V47.1875C15.7812 47.2656 15.7812 47.3438 15.8594 47.4219L16.4844 48.0469H15.625C15.5469 48.0469 15.4687 48.0469 15.3906 48.125L14.7656 48.75V47.8906C14.7656 47.8125 14.7656 47.7344 14.6875 47.6562L14.0625 47.0313H14.9219Z" fill="#01234C"/>
</g>
<defs>
<clipPath id="clip0_21_55">
<rect width="50" height="50" fill="white"/>
</clipPath>
</defs>
</svg>
