<svg width="27" height="27" viewBox="0 0 27 27" fill="none" xmlns="http://www.w3.org/2000/svg">
<path d="M22.6797 22.545C22.6797 23.4357 21.9505 24.1647 21.0597 24.1647H8.90973C8.019 24.1647 7.28973 23.4357 7.28973 22.545V7.425C7.28973 6.53373 8.019 5.805 8.90973 5.805H21.0603C21.9513 5.805 22.6803 6.534 22.6803 7.425L22.6797 22.545Z" fill="#DADEE0"/>
<path d="M7.28973 7.425C7.28973 6.53373 8.019 5.805 8.90973 5.805H19.7103V4.455C19.7103 3.564 18.9813 2.835 18.0903 2.835H5.93973C5.049 2.835 4.31973 3.564 4.31973 4.455V19.575C4.31973 20.4657 5.049 21.1947 5.93973 21.1947H7.28973V7.425Z" fill="#1BB7EA"/>
<path d="M11.0703 12.4178H19.1697C19.3933 12.4178 19.5747 12.2364 19.5747 12.0128C19.5747 11.789 19.3933 11.6078 19.1697 11.6078H11.0703C10.8467 11.6078 10.6653 11.789 10.6653 12.0128C10.6653 12.2364 10.8467 12.4178 11.0703 12.4178ZM11.0703 9.71784H19.1697C19.3933 9.71784 19.5747 9.5364 19.5747 9.31284C19.5747 9.08901 19.3933 8.90784 19.1697 8.90784H11.0703C10.8467 8.90784 10.6653 9.08901 10.6653 9.31284C10.6653 9.5364 10.8467 9.71784 11.0703 9.71784ZM11.0703 15.1178H19.1697C19.3933 15.1178 19.5747 14.9364 19.5747 14.7128C19.5747 14.489 19.3933 14.3078 19.1697 14.3078H11.0703C10.8467 14.3078 10.6653 14.489 10.6653 14.7128C10.6653 14.9364 10.8467 15.1178 11.0703 15.1178Z" fill="#A4ABB1"/>
<path d="M14.5176 19.6587C14.5568 19.5013 14.5797 19.3377 14.5797 19.1681C14.5797 18.0495 13.6731 17.1431 12.5547 17.1431C11.4364 17.1431 10.5297 18.0495 10.5297 19.1681C10.5297 20.2867 11.4364 21.1931 12.5547 21.1931C12.7243 21.1931 12.8879 21.1702 13.0451 21.1307L12.5547 19.1681L14.5176 19.6587Z" fill="#1BB7EA"/>
<path d="M14.5176 19.6587L12.5547 19.1681L13.0451 21.1307C13.7687 20.9501 14.337 20.382 14.5176 19.6587Z" fill="#1F4254"/>
<path d="M19.7292 18.2107C19.8004 18.2836 19.8447 18.383 19.8447 18.4928V20.9228C19.8447 21.1464 19.6633 21.3278 19.4397 21.3278C19.2162 21.3278 19.0347 21.1464 19.0347 20.9228V19.406L17.0356 17.4066V17.4077C17.1029 17.4801 17.1447 17.5762 17.1447 17.6828V20.9228C17.1447 21.1464 16.9633 21.3278 16.7397 21.3278C16.5162 21.3278 16.3347 21.1464 16.3347 20.9228V20.1023L14.1326 17.9002C14.4118 18.2471 14.5797 18.6878 14.5797 19.1678C14.5797 19.3374 14.5565 19.501 14.5176 19.6584C14.337 20.382 13.7689 20.9501 13.0453 21.1305C12.8882 21.1699 12.7246 21.1928 12.555 21.1928C12.0671 21.1928 11.6194 21.02 11.2698 20.7328L14.7015 24.165H21.0597C21.9505 24.165 22.6797 23.436 22.6797 22.5453V21.1613L19.7292 18.2107Z" fill="#C7CED2"/>
<path d="M17.6847 19.3031V20.9231C17.6847 21.1467 17.8662 21.3281 18.0897 21.3281C18.3133 21.3281 18.4947 21.1467 18.4947 20.9231V19.3031C18.4947 19.0793 18.3133 18.8981 18.0897 18.8981C17.8662 18.8981 17.6847 19.0793 17.6847 19.3031ZM16.3347 17.6831V20.9231C16.3347 21.1467 16.5162 21.3281 16.7397 21.3281C16.9633 21.3281 17.1447 21.1467 17.1447 20.9231V17.6831C17.1447 17.4593 16.9633 17.2781 16.7397 17.2781C16.5162 17.2781 16.3347 17.4593 16.3347 17.6831ZM19.0347 18.4931V20.9231C19.0347 21.1467 19.2162 21.3281 19.4397 21.3281C19.6633 21.3281 19.8447 21.1467 19.8447 20.9231V18.4931C19.8447 18.2693 19.6633 18.0881 19.4397 18.0881C19.2162 18.0881 19.0347 18.2693 19.0347 18.4931Z" fill="#1F4254"/>
</svg>
