<svg width="25" height="25" viewBox="0 0 25 25" fill="none" xmlns="http://www.w3.org/2000/svg">
<path d="M22.2656 14.4531H9.76562C9.35122 14.4531 8.9538 14.6177 8.66077 14.9108C8.36775 15.2038 8.20312 15.6012 8.20312 16.0156V18.75H5.85937C4.35156 18.75 3.125 17.4141 3.125 15.7695C3.125 14.4727 3.04687 15.2344 3.51562 15.2344C3.59321 15.2348 3.66918 15.2122 3.73383 15.1693C3.79849 15.1264 3.84891 15.0652 3.87866 14.9935C3.90841 14.9219 3.91615 14.843 3.90089 14.7669C3.88563 14.6908 3.84806 14.621 3.79297 14.5664L3.01172 13.7852C2.97541 13.7485 2.9322 13.7195 2.8846 13.6997C2.837 13.6798 2.78594 13.6696 2.73438 13.6696C2.68281 13.6696 2.63175 13.6798 2.58415 13.6997C2.53655 13.7195 2.49334 13.7485 2.45703 13.7852L1.67578 14.5664C1.60223 14.64 1.5609 14.7397 1.5609 14.8438C1.5609 14.9478 1.60223 15.0475 1.67578 15.1211C1.74934 15.1946 1.8491 15.236 1.95313 15.236C2.05715 15.236 2.15691 15.1946 2.23047 15.1211L2.34375 15.0039V15.7852C2.34375 17.8437 3.90625 19.5312 5.85937 19.5312H8.20312V22.2656C8.20312 22.68 8.36775 23.0775 8.66077 23.3705C8.9538 23.6635 9.35122 23.8281 9.76562 23.8281H22.2656C22.68 23.8281 23.0775 23.6635 23.3705 23.3705C23.6635 23.0775 23.8281 22.68 23.8281 22.2656V16.0156C23.8281 15.6012 23.6635 15.2038 23.3705 14.9108C23.0775 14.6177 22.68 14.4531 22.2656 14.4531ZM23.0469 22.2656C23.0469 22.4728 22.9646 22.6715 22.8181 22.8181C22.6715 22.9646 22.4728 23.0469 22.2656 23.0469H9.76562C9.55842 23.0469 9.35971 22.9646 9.2132 22.8181C9.06669 22.6715 8.98437 22.4728 8.98437 22.2656V16.0156C8.98437 15.8084 9.06669 15.6097 9.2132 15.4632C9.35971 15.3167 9.55842 15.2344 9.76562 15.2344H22.2656C22.4728 15.2344 22.6715 15.3167 22.8181 15.4632C22.9646 15.6097 23.0469 15.8084 23.0469 16.0156V22.2656Z" fill="black"/>
<path d="M16.0156 17.1875C15.6293 17.1875 15.2517 17.302 14.9305 17.5167C14.6093 17.7313 14.359 18.0363 14.2112 18.3932C14.0633 18.7501 14.0247 19.1428 14.1 19.5217C14.1754 19.9005 14.3614 20.2485 14.6346 20.5217C14.9077 20.7948 15.2557 20.9809 15.6346 21.0562C16.0135 21.1316 16.4062 21.0929 16.7631 20.9451C17.1199 20.7972 17.425 20.5469 17.6396 20.2257C17.8542 19.9045 17.9688 19.5269 17.9688 19.1406C17.9688 18.6226 17.763 18.1258 17.3967 17.7596C17.0304 17.3933 16.5336 17.1875 16.0156 17.1875V17.1875ZM16.0156 20.3125C15.7839 20.3125 15.5573 20.2438 15.3646 20.115C15.1719 19.9862 15.0217 19.8032 14.933 19.5891C14.8443 19.3749 14.8211 19.1393 14.8663 18.912C14.9115 18.6847 15.0231 18.4759 15.187 18.312C15.3509 18.1481 15.5597 18.0365 15.787 17.9913C16.0143 17.9461 16.2499 17.9693 16.4641 18.058C16.6782 18.1467 16.8612 18.2969 16.99 18.4896C17.1188 18.6823 17.1875 18.9089 17.1875 19.1406C17.1875 19.4514 17.064 19.7495 16.8443 19.9693C16.6245 20.189 16.3264 20.3125 16.0156 20.3125ZM20.7031 17.9688C20.4714 17.9688 20.2448 18.0375 20.0521 18.1662C19.8594 18.295 19.7092 18.478 19.6205 18.6922C19.5318 18.9063 19.5086 19.1419 19.5538 19.3692C19.599 19.5966 19.7106 19.8054 19.8745 19.9693C20.0384 20.1332 20.2472 20.2448 20.4745 20.29C20.7018 20.3352 20.9374 20.312 21.1516 20.2233C21.3657 20.1346 21.5487 19.9844 21.6775 19.7917C21.8063 19.599 21.875 19.3724 21.875 19.1406C21.875 18.8298 21.7515 18.5318 21.5318 18.312C21.312 18.0922 21.0139 17.9688 20.7031 17.9688V17.9688ZM20.7031 19.5312C20.5995 19.5312 20.5002 19.4901 20.4269 19.4168C20.3537 19.3436 20.3125 19.2442 20.3125 19.1406C20.3125 19.037 20.3537 18.9377 20.4269 18.8644C20.5002 18.7912 20.5995 18.75 20.7031 18.75C20.8067 18.75 20.9061 18.7912 20.9793 18.8644C21.0526 18.9377 21.0938 19.037 21.0938 19.1406C21.0938 19.2442 21.0526 19.3436 20.9793 19.4168C20.9061 19.4901 20.8067 19.5312 20.7031 19.5312ZM11.3281 17.9688C11.0964 17.9688 10.8698 18.0375 10.6771 18.1662C10.4844 18.295 10.3342 18.478 10.2455 18.6922C10.1568 18.9063 10.1336 19.1419 10.1788 19.3692C10.224 19.5966 10.3356 19.8054 10.4995 19.9693C10.6634 20.1332 10.8722 20.2448 11.0995 20.29C11.3268 20.3352 11.5624 20.312 11.7766 20.2233C11.9907 20.1346 12.1737 19.9844 12.3025 19.7917C12.4313 19.599 12.5 19.3724 12.5 19.1406C12.5 18.8298 12.3765 18.5318 12.1568 18.312C11.937 18.0922 11.6389 17.9688 11.3281 17.9688ZM11.3281 19.5312C11.2245 19.5312 11.1252 19.4901 11.0519 19.4168C10.9787 19.3436 10.9375 19.2442 10.9375 19.1406C10.9375 19.037 10.9787 18.9377 11.0519 18.8644C11.1252 18.7912 11.2245 18.75 11.3281 18.75C11.4317 18.75 11.5311 18.7912 11.6043 18.8644C11.6776 18.9377 11.7188 19.037 11.7188 19.1406C11.7188 19.2442 11.6776 19.3436 11.6043 19.4168C11.5311 19.4901 11.4317 19.5312 11.3281 19.5312ZM1.95312 5.46875V5.07812C1.95312 4.97452 1.91197 4.87517 1.83871 4.80191C1.76546 4.72866 1.6661 4.6875 1.5625 4.6875C1.4589 4.6875 1.35954 4.72866 1.28629 4.80191C1.21303 4.87517 1.17188 4.97452 1.17188 5.07812V5.46875C1.17188 5.57235 1.21303 5.67171 1.28629 5.74496C1.35954 5.81822 1.4589 5.85938 1.5625 5.85938C1.6661 5.85938 1.76546 5.81822 1.83871 5.74496C1.91197 5.67171 1.95312 5.57235 1.95312 5.46875Z" fill="black"/>
<path d="M2.73438 12.8906H11.3281C11.7425 12.8906 12.14 12.726 12.433 12.433C12.726 12.14 12.8906 11.7425 12.8906 11.3281V7.42188H14.8438C16.3516 7.42188 17.5781 8.75781 17.5781 10.4023V11.1836L17.4648 11.0664C17.3913 10.9929 17.2915 10.9515 17.1875 10.9515C17.0835 10.9515 16.9837 10.9929 16.9102 11.0664C16.8366 11.14 16.7953 11.2397 16.7953 11.3438C16.7953 11.4478 16.8366 11.5475 16.9102 11.6211L17.6914 12.4023C17.7277 12.439 17.7709 12.468 17.8185 12.4878C17.8661 12.5077 17.9172 12.5179 17.9688 12.5179C18.0203 12.5179 18.0714 12.5077 18.119 12.4878C18.1666 12.468 18.2098 12.439 18.2461 12.4023L19.0273 11.6211C19.0638 11.5847 19.0927 11.5414 19.1124 11.4938C19.1321 11.4463 19.1422 11.3953 19.1422 11.3438C19.1422 11.2922 19.1321 11.2412 19.1124 11.1937C19.0927 11.1461 19.0638 11.1028 19.0273 11.0664C18.9909 11.03 18.9477 11.0011 18.9001 10.9814C18.8525 10.9617 18.8015 10.9515 18.75 10.9515C18.6985 10.9515 18.6475 10.9617 18.5999 10.9814C18.5523 11.0011 18.5091 11.03 18.4727 11.0664L18.3594 11.1836V10.4023C18.3594 8.32812 16.7969 6.64062 14.8438 6.64062H12.8906V2.73438C12.8906 2.31997 12.726 1.92255 12.433 1.62952C12.14 1.33649 11.7425 1.17188 11.3281 1.17188H2.73438C2.31997 1.17188 1.92255 1.33649 1.62952 1.62952C1.33649 1.92255 1.17188 2.31997 1.17188 2.73438V3.51562C1.17188 3.61923 1.21303 3.71858 1.28629 3.79184C1.35954 3.86509 1.4589 3.90625 1.5625 3.90625C1.6661 3.90625 1.76546 3.86509 1.83871 3.79184C1.91197 3.71858 1.95312 3.61923 1.95312 3.51562V2.73438C1.95312 2.52717 2.03543 2.32846 2.18195 2.18195C2.32846 2.03543 2.52717 1.95313 2.73438 1.95312H5.46875V4.6875C5.46875 4.7911 5.50991 4.89046 5.58316 4.96371C5.65642 5.03697 5.75577 5.07812 5.85938 5.07812H8.20312C8.30673 5.07812 8.40608 5.03697 8.47934 4.96371C8.5526 4.89046 8.59375 4.7911 8.59375 4.6875V1.95312H11.3281C11.5353 1.95313 11.734 2.03543 11.8806 2.18195C12.0271 2.32846 12.1094 2.52717 12.1094 2.73438V11.3281C12.1094 11.5353 12.0271 11.734 11.8806 11.8806C11.734 12.0271 11.5353 12.1094 11.3281 12.1094H2.73438C2.52717 12.1094 2.32846 12.0271 2.18195 11.8806C2.03543 11.734 1.95313 11.5353 1.95312 11.3281V7.03125C1.95312 6.92765 1.91197 6.82829 1.83871 6.75504C1.76546 6.68178 1.6661 6.64062 1.5625 6.64062C1.4589 6.64062 1.35954 6.68178 1.28629 6.75504C1.21303 6.82829 1.17188 6.92765 1.17188 7.03125V11.3281C1.17188 11.7425 1.33649 12.14 1.62952 12.433C1.92255 12.726 2.31997 12.8906 2.73438 12.8906ZM7.8125 4.29688H6.25V1.95312H7.8125V4.29688Z" fill="black"/>
<path d="M3.125 9.76562H4.6875C4.7911 9.76562 4.89046 9.72447 4.96371 9.65121C5.03697 9.57796 5.07812 9.4786 5.07812 9.375C5.07812 9.2714 5.03697 9.17204 4.96371 9.09879C4.89046 9.02553 4.7911 8.98438 4.6875 8.98438H3.125C3.0214 8.98438 2.92204 9.02553 2.84879 9.09879C2.77553 9.17204 2.73438 9.2714 2.73438 9.375C2.73438 9.4786 2.77553 9.57796 2.84879 9.65121C2.92204 9.72447 3.0214 9.76562 3.125 9.76562ZM3.125 11.3281H4.6875C4.7911 11.3281 4.89046 11.287 4.96371 11.2137C5.03697 11.1405 5.07812 11.0411 5.07812 10.9375C5.07812 10.8339 5.03697 10.7345 4.96371 10.6613C4.89046 10.588 4.7911 10.5469 4.6875 10.5469H3.125C3.0214 10.5469 2.92204 10.588 2.84879 10.6613C2.77553 10.7345 2.73438 10.8339 2.73438 10.9375C2.73438 11.0411 2.77553 11.1405 2.84879 11.2137C2.92204 11.287 3.0214 11.3281 3.125 11.3281Z" fill="black"/>
</svg>
